HIERARCHY
ROOT Hips
{
    OFFSET 0.000000 0.000000 0.000000
    CHANNELS 6 Xposition Yposition Zposition Zrotation Xrotation Yrotation
        JOINT Chest
        {
            OFFSET -0.000000 31.471069 -0.000000
            CHANNELS 3 Zrotation Xrotation Yrotation
            JOINT Neck
            {
                OFFSET -0.000000 23.202770 0.000000
                CHANNELS 3 Zrotation Xrotation Yrotation
                JOINT Head
                {
                    OFFSET -0.000000 11.000000 0.000000
                    CHANNELS 3 Zrotation Xrotation Yrotation
                    End Site
                    {
                        OFFSET -0.000000 17.000000 0.000000
                    }
                }
            }
            JOINT LeftCollar
            {
                OFFSET -0.000000 23.202770 0.000000
                CHANNELS 3 Zrotation Xrotation Yrotation
                JOINT LeftShoulder
                {
                    OFFSET 21.000000 -0.000000 0.000000
                    CHANNELS 3 Zrotation Xrotation Yrotation
                    JOINT LeftElbow
                    {
                        OFFSET 23.506504 0.000000 0.000000
                        CHANNELS 3 Zrotation Xrotation Yrotation
                        JOINT LeftWrist
                        {
                            OFFSET 26.183235 0.000000 0.000000
                            CHANNELS 3 Zrotation Xrotation Yrotation
                            End Site
                            {
                                OFFSET 0.000000 -15.000001 0.000000
                            }
                        }
                    }
                }
            }
            JOINT RightCollar
            {
                OFFSET -0.000000 23.202770 0.000000
                CHANNELS 3 Zrotation Xrotation Yrotation
                JOINT RightShoulder
                {
                    OFFSET -21.000000 0.000000 0.000000
                    CHANNELS 3 Zrotation Xrotation Yrotation
                    JOINT RightElbow
                    {
                        OFFSET -23.506504 0.000000 0.000000
                        CHANNELS 3 Zrotation Xrotation Yrotation
                        JOINT RightWrist
                        {
                            OFFSET -26.183235 0.000000 0.000000
                            CHANNELS 3 Zrotation Xrotation Yrotation
                            End Site
                            {
                                OFFSET -0.000000 -15.000001 0.000000
                            }
                        }
                    }
                }
            }
        }
    JOINT LeftHip
    {
        OFFSET 12.000000 0.000000 0.000000
        CHANNELS 3 Zrotation Xrotation Yrotation
        JOINT LeftKnee
        {
            OFFSET -0.000000 -41.026867 0.000000
            CHANNELS 3 Zrotation Xrotation Yrotation
            JOINT LeftAnkle
            {
                OFFSET -0.000000 -42.711906 0.000000
                CHANNELS 3 Zrotation Xrotation Yrotation
                End Site
                {
                    OFFSET -0.000000 -5.000000 17.000000
                }
            }
        }
    }
    JOINT RightHip
    {
        OFFSET -12.000000 0.000000 0.000000
        CHANNELS 3 Zrotation Xrotation Yrotation
        JOINT RightKnee
        {
            OFFSET -0.000000 -41.026867 0.000000
            CHANNELS 3 Zrotation Xrotation Yrotation
            JOINT RightAnkle
            {
                OFFSET -0.000000 -42.711906 0.000000
                CHANNELS 3 Zrotation Xrotation Yrotation
                End Site
                {
                    OFFSET -0.000000 -5.000000 17.000000
                }
            }
        }
    }
}
MOTION
Frames:    13
Frame Time:    0.010000
46.601051    92.847404    82.257942    -5.086564    -12.237224    -36.651848    -3.343247    12.672885    2.215954    1.110605    0.496615    -21.138380    13.944173    13.309647    -22.768328    -20.138018    -1.673987    9.312479    -15.129231    42.534836    -34.777557    -18.909777    6.997778    -39.631721    97.813820    -8.930532    -48.607323    27.186871    -0.397334    -1.779736    6.902627    61.225239    52.353378    -12.466125    -3.035360    26.235258    -105.658737    7.655066    6.804009    -2.977520    3.300404    -8.492134    -7.088286    19.738377    -10.324639    -2.329852    -12.636378    35.747036    -2.708837    -11.837584    7.525507    13.064725    55.942093    -10.177361    2.371350    -0.236406    -20.894970    
46.632774    93.133316    82.200241    -5.241039    -11.886673    -37.285156    -3.085138    12.310415    1.632210    1.288763    0.466283    -21.136810    13.747768    13.517728    -22.768705    -20.130121    -1.644355    9.204799    -15.476500    42.917618    -35.057274    -18.459372    6.513057    -38.071392    98.612633    -9.652726    -47.271095    27.085835    -0.433665    -1.910488    8.906450    61.278904    50.510231    -12.066668    -2.748968    24.887375    -106.163689    7.800824    5.579046    -2.973917    3.851964    -8.344783    -6.440721    18.512409    -10.366338    -2.597066    -12.444917    36.019199    -2.600346    -11.816877    7.129488    13.037226    55.082016    -10.162445    2.817196    -0.636725    -21.016756    
46.677345    93.381752    82.123695    -5.375515    -11.524920    -37.907322    -2.821389    11.954526    1.047558    1.446092    0.444195    -21.116804    13.598712    13.605801    -22.741049    -20.123138    -1.603157    9.094114    -15.840631    43.255096    -35.260185    -17.990147    6.081841    -36.718224    99.297646    -10.115400    -45.751869    27.008928    -0.465331    -1.988854    11.164501    61.158482    48.256344    -11.686990    -2.524280    23.777927    -106.474884    7.911947    4.482635    -2.966631    4.346795    -8.269237    -5.848501    17.324457    -10.395649    -2.807328    -12.241609    36.368511    -2.547874    -11.830456    6.654258    12.840489    54.317245    -9.855876    3.029951    -0.843980    -20.950541    
46.733498    93.588066    82.026901    -5.493146    -11.155532    -38.529247    -2.560899    11.623672    0.478367    1.588130    0.416431    -21.098621    13.517925    13.573357    -22.708927    -20.106462    -1.572185    8.940487    -16.235630    43.543034    -35.387577    -17.477573    5.674725    -35.578583    99.779030    -10.283783    -44.166245    26.954142    -0.491391    -2.053329    13.523644    60.863880    45.755466    -11.370193    -2.339568    22.891010    -106.593613    8.007318    3.460747    -2.942205    4.785320    -8.311610    -5.341365    16.173033    -10.319154    -2.965237    -12.017532    36.752476    -2.536533    -11.888568    6.149485    12.514411    53.676640    -9.345884    3.058007    -0.843594    -20.775387    
46.799347    93.749496    81.909744    -5.595199    -10.781487    -39.161800    -2.300535    11.331328    -0.059143    1.682127    0.369731    -21.039877    13.524296    13.458733    -22.637825    -20.090771    -1.535055    8.820361    -16.669695    43.700222    -35.433254    -16.982914    5.352660    -34.652706    100.023132    -10.149261    -42.630020    26.908955    -0.489778    -2.036278    15.856028    60.440353    43.144978    -11.118302    -2.197953    22.210157    -106.573921    8.108992    2.494602    -2.891868    5.166154    -8.488097    -4.933953    15.064590    -10.081078    -3.079075    -11.774698    37.136799    -2.555236    -11.997480    5.672000    12.108441    53.172035    -8.783723    2.928406    -0.627131    -20.521303    
46.872692    93.865456    81.773819    -5.681248    -10.406266    -39.815758    -2.046204    11.084996    -0.544578    1.760376    0.287332    -20.985220    13.601996    13.268773    -22.570467    -20.064333    -1.551007    8.656696    -17.145021    43.787724    -35.405941    -16.437658    5.023775    -33.937229    99.992599    -9.769787    -41.238220    26.867134    -0.468501    -2.022019    18.017277    59.895187    40.604179    -10.982697    -2.122008    21.693123    -106.430939    8.225880    1.543267    -2.813606    5.483107    -8.760230    -4.621579    14.022486    -9.702950    -3.153890    -11.528578    37.510361    -2.598768    -12.158461    5.283026    11.683927    52.801689    -8.360507    2.645196    -0.195268    -20.176588    
46.951218    93.937325    81.622498    -5.749838    -10.035255    -40.501205    -1.802381    10.889145    -0.957030    1.821372    0.156980    -20.919724    13.732664    13.038251    -22.494162    -20.053165    -1.521032    8.484303    -17.634352    43.688034    -35.296322    -16.072779    4.834656    -33.425983    99.791115    -9.178279    -40.117512    26.812346    -0.500867    -1.991076    19.935066    59.349377    38.232788    -11.053432    -2.113016    21.287750    -106.148056    8.366783    0.524983    -2.712968    5.728069    -9.043880    -4.386890    13.080500    -9.255578    -3.192765    -11.300435    37.868153    -2.667544    -12.367435    5.038101    11.301538    52.559826    -8.236779    2.198442    0.433721    -19.726982    
47.032509    93.968353    81.460403    -5.800595    -9.675789    -41.224907    -1.573248    10.746882    -1.279050    1.883910    -0.028086    -20.855150    13.886127    12.784290    -22.418953    -20.058485    -1.487182    8.291536    -18.079626    43.466770    -35.192780    -15.704177    4.660558    -33.113693    99.394051    -8.448463    -39.245697    26.740635    -0.464103    -1.969128    21.653175    58.692741    35.991367    -11.083074    -2.082058    21.044931    -105.883308    8.525955    -0.444334    -2.599469    5.895887    -9.244210    -4.211086    12.270167    -8.804090    -3.200691    -11.107514    38.190060    -2.763815    -12.614229    4.972728    11.000847    52.443211    -8.481558    1.594653    1.212323    -19.191090    
47.113651    93.963310    81.292763    -5.835944    -9.337237    -41.986889    -1.361708    10.659730    -1.503262    1.959724    -0.261755    -20.789162    14.035894    12.523451    -22.341612    -20.089235    -1.446916    8.091749    -18.432051    43.152752    -35.122643    -15.399535    4.541271    -32.982182    98.920502    -7.655567    -38.615395    26.645477    -0.495128    -1.954121    23.066776    58.082497    34.029114    -11.350636    -2.132514    20.843859    -105.535965    8.700294    -1.497780    -2.482800    5.988953    -9.292476    -4.081462    11.611567    -8.382075    -3.183139    -10.958358    38.447693    -2.889284    -12.881046    5.095718    10.792399    52.449570    -9.064767    0.879864    2.064706    -18.623999    
47.190559    93.928345    81.125145    -5.862429    -9.030788    -42.779396    -1.171776    10.627353    -1.635275    2.065703    -0.526254    -20.729862    14.159888    12.260283    -22.267946    -20.145933    -1.426616    7.877030    -18.640293    42.825001    -35.129856    -15.126777    4.439310    -33.005722    98.455597    -6.888914    -38.174641    26.541651    -0.457299    -1.957773    24.311455    57.359871    32.188049    -11.493867    -2.144565    20.759037    -105.307442    8.847858    -2.423070    -2.369879    6.018875    -9.150651    -3.989475    11.113532    -8.007185    -3.144160    -10.854701    38.619545    -3.044502    -13.140813    5.393589    10.666423    52.572186    -9.885776    0.123308    2.906774    -18.099497    
47.257900    93.870407    80.962738    -5.890925    -8.768113    -43.587719    -1.008433    10.647067    -1.693148    2.211590    -0.791214    -20.680212    14.248417    11.994796    -22.200216    -20.234299    -1.394013    7.645581    -18.659140    42.506931    -35.234020    -14.960427    4.405941    -33.150730    98.123123    -6.219366    -37.874207    26.444427    -0.493545    -1.978903    25.334095    56.653225    30.547203    -11.796947    -2.199308    20.681652    -105.077538    8.954402    -3.351043    -2.263095    6.002883    -8.794650    -3.926483    10.780721    -7.707834    -3.086434    -10.797112    38.698692    -3.228706    -13.358500    5.838346    10.603624    52.795757    -10.814200    -0.610624    3.669931    -17.682632    
47.310593    93.796951    80.808487    -5.932373    -8.556611    -44.391369    -0.874204    10.711248    -1.704770    2.398634    -1.017616    -20.636576    14.304453    11.721869    -22.133831    -20.352468    -1.360743    7.406872    -18.450367    42.261471    -35.474770    -14.824976    4.399294    -33.385811    97.972641    -5.713984    -37.625053    26.383749    -0.471642    -2.001988    26.278433    55.790737    28.919693    -11.888520    -2.203953    20.686916    -105.059334    8.966894    -4.011889    -2.160122    5.954432    -8.212481    -3.883207    10.617244    -7.523685    -3.014119    -10.787776    38.691925    -3.440302    -13.500201    6.391755    10.580301    53.096710    -11.721629    -1.272478    4.309680    -17.411745    
47.345623    93.715233    80.661751    -5.993323    -8.395746    -45.166500    -0.767746    10.807158    -1.701916    2.624744    -1.172708    -20.599997    14.335866    11.433736    -22.069456    -20.497137    -1.330382    7.164344    -17.992422    42.137115    -35.868549    -14.711216    4.416041    -33.678089    98.062057    -5.419563    -37.358902    26.378992    -0.471475    -2.021689    27.089874    54.838161    27.373041    -11.982095    -2.209370    20.702614    -105.145340    8.866033    -4.496630    -2.054274    5.876605    -7.416938    -3.852309    10.624958    -7.486308    -2.934555    -10.829959    38.615189    -3.677250    -13.542751    7.008772    10.570273    53.447174    -12.499949    -1.828439    4.803994    -17.293306    
